<svg width="1024" height="489" fill="none" xmlns="http://www.w3.org/2000/svg"><rect opacity=".5" x="1.992" y="-.729" width="73.552" height="27.262" rx="10.5" transform="rotate(-65.099 715.511 -514.981)" stroke="#2060F6" stroke-width="3"/><rect opacity=".5" x="-.125" y="68.707" width="73.552" height="27.262" rx="10.5" transform="rotate(-65.1 -.125 68.707)" stroke="#2060F6" stroke-width="3"/><rect opacity=".5" x="1.992" y="-.729" width="37.489" height="13.006" rx="4.5" transform="rotate(-65.1 128.436 -127.671)" stroke="#2060F6" stroke-width="3"/><rect opacity=".5" x="1.992" y="-.729" width="37.489" height="13.006" rx="4.5" transform="rotate(-65.1 687.59 -328.746)" stroke="#2060F6" stroke-width="3"/><rect opacity=".5" x="3.32" y="-1.215" width="132.355" height="49.298" rx="9.5" transform="rotate(-65.1 832.278 -557.815)" stroke="#2060F6" stroke-width="5"/><rect opacity=".5" x="931.082" y="167.515" width="122.903" height="45.562" rx="9.5" transform="rotate(-65.1 931.082 167.515)" stroke="#2060F6" stroke-width="5"/><rect opacity=".5" x="3.32" y="-1.215" width="122.903" height="45.562" rx="9.5" transform="rotate(-65.1 257.033 127.572)" stroke="#2060F6" stroke-width="5"/><rect opacity=".5" x="1.992" y="-.729" width="37.487" height="13.005" rx="4.5" transform="rotate(-65.1 415.86 21.285)" stroke="#2060F6" stroke-width="3"/></svg>